# xmcd
#
# Track frame offsets:
#	150
#	17963
#	34487
#	57108
#	74232
#	88811
#	109357
#	129063
#	148324
#	167742
#	183488
#	201258
#	219759
#	237394
#	259721
#
# Disc length: 3739 seconds
#
# Revision: 0
# Processed by: cddbd v1.5.2PL0 Copyright (c) Steve Scherf et al.
# Submitted via: audiograbber 1.83.01
#
DISCID=e80e990f
DTITLE=Sound Choice - Country Hits - Vol. 167 SC8857
DYEAR=1900
DGENRE=Karaoke
TTITLE0=Sheryl Crow - The First Cut Is The Deepest
TTITLE1=Buddy Jewell - Sweet Southern Comfort
TTITLE2=Vince Gill - Young Man's Town
TTITLE3=Trace Adkins - Hot Mama
TTITLE4=Blue Country - Good Little Girls
TTITLE5=Kenny Chesney - There Goes My Life
TTITLE6=Darryl Worley - I Will Hold My Ground
TTITLE7=Kenny Chesney and Kid Rock - Luckenbach Texas
TTITLE8=Amanda Wilkinson - Gone From Love Too Long
TTITLE9=Martina McBride - In My Daughter's Eyes
TTITLE10=Rebecca Lynn Howard - I Need A Vacation
TTITLE11=Clint Black - Spend My Time
TTITLE12=Patty Loveless - On Your Way Home
TTITLE13=Tim McGraw - Watch The Wind Blow By
TTITLE14=Wynonna and Naomi Judd - Flies On The Butter
EXTD=
EXTT0=
EXTT1=
EXTT2=
EXTT3=
EXTT4=
EXTT5=
EXTT6=
EXTT7=
EXTT8=
EXTT9=
EXTT10=
EXTT11=
EXTT12=
EXTT13=
EXTT14=
PLAYORDER=
